<mxfile host="app.diagrams.net" modified="2022-08-04T12:24:44.945Z" agent="5.0 (Windows NT 10.0; Win64; x64) AppleWebKit/537.36 (KHTML, like Gecko) Chrome/103.0.0.0 Safari/537.36" etag="zSGkhATqufYylTIL4wRU" version="20.2.2" type="github">
  <diagram id="6a731a19-8d31-9384-78a2-239565b7b9f0" name="Page-1">
    <mxGraphModel dx="2104" dy="1053" grid="1" gridSize="10" guides="1" tooltips="1" connect="1" arrows="1" fold="1" page="1" pageScale="1" pageWidth="827" pageHeight="1169" background="none" math="0" shadow="0">
      <root>
        <mxCell id="0" />
        <mxCell id="1" parent="0" />
        <mxCell id="8lcwkk5BvwK1nQJLz7jU-129" value="" style="edgeStyle=orthogonalEdgeStyle;rounded=0;orthogonalLoop=1;jettySize=auto;html=1;fontFamily=Helvetica;fontSize=10;" edge="1" parent="1" source="8lcwkk5BvwK1nQJLz7jU-57" target="8lcwkk5BvwK1nQJLz7jU-128">
          <mxGeometry relative="1" as="geometry" />
        </mxCell>
        <mxCell id="8lcwkk5BvwK1nQJLz7jU-57" value="start" style="strokeWidth=2;html=1;shape=mxgraph.flowchart.terminator;whiteSpace=wrap;" vertex="1" parent="1">
          <mxGeometry x="535" y="50" width="100" height="40" as="geometry" />
        </mxCell>
        <mxCell id="8lcwkk5BvwK1nQJLz7jU-79" value="" style="edgeStyle=orthogonalEdgeStyle;rounded=0;orthogonalLoop=1;jettySize=auto;html=1;fontFamily=Helvetica;fontSize=10;" edge="1" parent="1" source="8lcwkk5BvwK1nQJLz7jU-58" target="8lcwkk5BvwK1nQJLz7jU-70">
          <mxGeometry relative="1" as="geometry" />
        </mxCell>
        <mxCell id="8lcwkk5BvwK1nQJLz7jU-82" style="edgeStyle=orthogonalEdgeStyle;rounded=0;orthogonalLoop=1;jettySize=auto;html=1;entryX=0.5;entryY=0;entryDx=0;entryDy=0;fontFamily=Helvetica;fontSize=10;" edge="1" parent="1" source="8lcwkk5BvwK1nQJLz7jU-58" target="8lcwkk5BvwK1nQJLz7jU-66">
          <mxGeometry relative="1" as="geometry" />
        </mxCell>
        <mxCell id="8lcwkk5BvwK1nQJLz7jU-58" value="load file vision.yaml" style="rounded=1;whiteSpace=wrap;html=1;absoluteArcSize=1;arcSize=14;strokeWidth=2;" vertex="1" parent="1">
          <mxGeometry x="230" y="130" width="160" height="40" as="geometry" />
        </mxCell>
        <mxCell id="8lcwkk5BvwK1nQJLz7jU-88" value="" style="edgeStyle=orthogonalEdgeStyle;rounded=0;orthogonalLoop=1;jettySize=auto;html=1;fontFamily=Helvetica;fontSize=10;" edge="1" parent="1" source="8lcwkk5BvwK1nQJLz7jU-59" target="8lcwkk5BvwK1nQJLz7jU-87">
          <mxGeometry relative="1" as="geometry" />
        </mxCell>
        <mxCell id="8lcwkk5BvwK1nQJLz7jU-59" value="load file ball.yaml" style="rounded=1;whiteSpace=wrap;html=1;absoluteArcSize=1;arcSize=14;strokeWidth=2;" vertex="1" parent="1">
          <mxGeometry x="494" y="130" width="160" height="40" as="geometry" />
        </mxCell>
        <mxCell id="8lcwkk5BvwK1nQJLz7jU-61" value="" style="endArrow=classic;html=1;rounded=0;exitX=0.11;exitY=0.89;exitDx=0;exitDy=0;exitPerimeter=0;entryX=1;entryY=0;entryDx=0;entryDy=0;" edge="1" parent="1" source="8lcwkk5BvwK1nQJLz7jU-57" target="8lcwkk5BvwK1nQJLz7jU-58">
          <mxGeometry width="50" height="50" relative="1" as="geometry">
            <mxPoint x="600" y="370" as="sourcePoint" />
            <mxPoint x="650" y="320" as="targetPoint" />
          </mxGeometry>
        </mxCell>
        <mxCell id="8lcwkk5BvwK1nQJLz7jU-62" value="" style="endArrow=classic;html=1;rounded=0;exitX=0.5;exitY=1;exitDx=0;exitDy=0;exitPerimeter=0;entryX=0.5;entryY=0;entryDx=0;entryDy=0;" edge="1" parent="1" source="8lcwkk5BvwK1nQJLz7jU-57" target="8lcwkk5BvwK1nQJLz7jU-59">
          <mxGeometry width="50" height="50" relative="1" as="geometry">
            <mxPoint x="600" y="370" as="sourcePoint" />
            <mxPoint x="650" y="320" as="targetPoint" />
          </mxGeometry>
        </mxCell>
        <mxCell id="8lcwkk5BvwK1nQJLz7jU-63" value="&lt;font style=&quot;font-size: 9px;&quot;&gt;Deklarasi Variable:&lt;br&gt;res_x = 360, res_y = 640, offset_x, offset_y, r_cam, center_x, center_y&lt;br&gt;&lt;br&gt;Timer:&lt;br&gt;ros::Timer tim_50hz&lt;br&gt;&lt;br&gt;Subscriber:&lt;br&gt;-image_transport::Subscrbier&lt;br&gt;sub_frame_bgr, sub_frame_hsv, sub_field_threshold&lt;br&gt;-ros::Subscriber&lt;br&gt;sub_odometry, sub_hsv_threshold&lt;br&gt;&lt;br&gt;Publisher&lt;br&gt;-image_transport::Publisher&lt;br&gt;pub_raw_threshold, pub_final_threshold, pub_display_out&lt;br&gt;-ros::Publisher&lt;br&gt;pub_vision_ball&lt;br&gt;&lt;br&gt;Service&lt;br&gt;-ros::Service ser_hsv_threshold&lt;br&gt;&lt;br&gt;Mutex&lt;br&gt;-boost::mutex&lt;br&gt;&lt;/font&gt;&lt;div&gt;&lt;font style=&quot;font-size: 9px;&quot;&gt;mutex_frame_bgr,&amp;nbsp;&lt;span style=&quot;background-color: initial;&quot;&gt;mutex_frame_hsv,&amp;nbsp;&lt;/span&gt;&lt;span style=&quot;background-color: initial;&quot;&gt;mutex_field_threshold&lt;/span&gt;&lt;/font&gt;&lt;/div&gt;&lt;div&gt;&lt;span style=&quot;background-color: initial;&quot;&gt;&lt;font style=&quot;font-size: 8px;&quot;&gt;&lt;br&gt;&lt;/font&gt;&lt;/span&gt;&lt;/div&gt;&lt;div&gt;&lt;span style=&quot;background-color: initial;&quot;&gt;&lt;font style=&quot;font-size: 8px;&quot;&gt;Threshold&lt;/font&gt;&lt;/span&gt;&lt;/div&gt;&lt;div&gt;&lt;span style=&quot;background-color: initial;&quot;&gt;&lt;font style=&quot;font-size: 8px;&quot;&gt;unsigned short int hsv_threshold[6]&lt;br&gt;&lt;/font&gt;&lt;/span&gt;&lt;/div&gt;&lt;div&gt;&lt;span style=&quot;background-color: initial;&quot;&gt;&lt;font style=&quot;font-size: 8px;&quot;&gt;&lt;br&gt;&lt;/font&gt;&lt;/span&gt;&lt;/div&gt;&lt;div&gt;&lt;span style=&quot;background-color: initial;&quot;&gt;&lt;font style=&quot;font-size: 8px;&quot;&gt;Regression&lt;/font&gt;&lt;/span&gt;&lt;/div&gt;&lt;div&gt;&lt;span style=&quot;background-color: initial;&quot;&gt;&lt;font style=&quot;font-size: 8px;&quot;&gt;vector&amp;lt;double&amp;gt; regresi;&lt;br&gt;&lt;/font&gt;&lt;/span&gt;&lt;/div&gt;&lt;div style=&quot;font-size: 10px;&quot;&gt;&lt;span style=&quot;background-color: initial;&quot;&gt;&lt;font style=&quot;font-size: 10px;&quot;&gt;&lt;br&gt;&lt;/font&gt;&lt;/span&gt;&lt;/div&gt;&lt;div style=&quot;font-size: 10px;&quot;&gt;&lt;span style=&quot;background-color: initial;&quot;&gt;&lt;font style=&quot;font-size: 10px;&quot;&gt;&lt;div style=&quot;&quot;&gt;-membuat container kosong/zeros&lt;/div&gt;&lt;div style=&quot;&quot;&gt;-variable Mat&lt;/div&gt;&lt;div style=&quot;&quot;&gt;-----UC1&lt;/div&gt;&lt;div style=&quot;&quot;&gt;frame_hsv,&amp;nbsp;&lt;span style=&quot;background-color: initial;&quot;&gt;field_bgr&lt;/span&gt;&lt;/div&gt;&lt;div style=&quot;&quot;&gt;-----UC3&lt;/div&gt;&lt;div style=&quot;&quot;&gt;field_threshold,&amp;nbsp;&lt;span style=&quot;background-color: initial;&quot;&gt;ball_threshold.&amp;nbsp;&lt;/span&gt;&lt;span style=&quot;background-color: initial;&quot;&gt;raw_threshold,&amp;nbsp;&lt;/span&gt;&lt;span style=&quot;background-color: initial;&quot;&gt;final_threshold,&amp;nbsp;&lt;/span&gt;&lt;span style=&quot;background-color: initial;&quot;&gt;display_in,&amp;nbsp;&lt;/span&gt;&lt;span style=&quot;background-color: initial;&quot;&gt;display_out&lt;/span&gt;&lt;/div&gt;&lt;/font&gt;&lt;/span&gt;&lt;/div&gt;" style="rounded=1;whiteSpace=wrap;html=1;absoluteArcSize=1;arcSize=14;strokeWidth=2;" vertex="1" parent="1">
          <mxGeometry x="2710" y="45" width="539" height="530" as="geometry" />
        </mxCell>
        <mxCell id="8lcwkk5BvwK1nQJLz7jU-83" value="" style="edgeStyle=orthogonalEdgeStyle;rounded=0;orthogonalLoop=1;jettySize=auto;html=1;fontFamily=Helvetica;fontSize=10;" edge="1" parent="1" source="8lcwkk5BvwK1nQJLz7jU-66" target="8lcwkk5BvwK1nQJLz7jU-67">
          <mxGeometry relative="1" as="geometry" />
        </mxCell>
        <mxCell id="8lcwkk5BvwK1nQJLz7jU-66" value="Input value transform, offset_x, offset_y, r_cam ke variable&lt;br&gt;" style="rounded=1;whiteSpace=wrap;html=1;absoluteArcSize=1;arcSize=14;strokeWidth=2;" vertex="1" parent="1">
          <mxGeometry x="130" y="210" width="160" height="80" as="geometry" />
        </mxCell>
        <mxCell id="8lcwkk5BvwK1nQJLz7jU-94" style="edgeStyle=orthogonalEdgeStyle;rounded=0;orthogonalLoop=1;jettySize=auto;html=1;entryX=0;entryY=0.5;entryDx=0;entryDy=0;fontFamily=Helvetica;fontSize=10;" edge="1" parent="1" source="8lcwkk5BvwK1nQJLz7jU-67" target="8lcwkk5BvwK1nQJLz7jU-89">
          <mxGeometry relative="1" as="geometry">
            <Array as="points">
              <mxPoint x="220" y="660" />
            </Array>
          </mxGeometry>
        </mxCell>
        <mxCell id="8lcwkk5BvwK1nQJLz7jU-67" value="kalkulasi center:&lt;br&gt;center_x = (res_x/2) + offset_x&lt;br&gt;center_y = (res_y/2) + offset_y" style="rounded=1;whiteSpace=wrap;html=1;absoluteArcSize=1;arcSize=14;strokeWidth=2;" vertex="1" parent="1">
          <mxGeometry x="130" y="330" width="160" height="80" as="geometry" />
        </mxCell>
        <mxCell id="8lcwkk5BvwK1nQJLz7jU-74" value="" style="edgeStyle=orthogonalEdgeStyle;rounded=0;orthogonalLoop=1;jettySize=auto;html=1;fontFamily=Helvetica;fontSize=10;" edge="1" parent="1" source="8lcwkk5BvwK1nQJLz7jU-69" target="8lcwkk5BvwK1nQJLz7jU-73">
          <mxGeometry relative="1" as="geometry" />
        </mxCell>
        <mxCell id="8lcwkk5BvwK1nQJLz7jU-69" value="clear variable vector regresi" style="rounded=1;whiteSpace=wrap;html=1;absoluteArcSize=1;arcSize=14;strokeWidth=2;" vertex="1" parent="1">
          <mxGeometry x="334" y="310" width="160" height="40" as="geometry" />
        </mxCell>
        <mxCell id="8lcwkk5BvwK1nQJLz7jU-86" style="edgeStyle=orthogonalEdgeStyle;rounded=0;orthogonalLoop=1;jettySize=auto;html=1;entryX=0.5;entryY=0;entryDx=0;entryDy=0;fontFamily=Helvetica;fontSize=10;" edge="1" parent="1" source="8lcwkk5BvwK1nQJLz7jU-70" target="8lcwkk5BvwK1nQJLz7jU-69">
          <mxGeometry relative="1" as="geometry" />
        </mxCell>
        <mxCell id="8lcwkk5BvwK1nQJLz7jU-70" value="memasukkan max_orde ke dalam variable" style="rounded=1;whiteSpace=wrap;html=1;absoluteArcSize=1;arcSize=14;strokeWidth=2;" vertex="1" parent="1">
          <mxGeometry x="334" y="210" width="160" height="80" as="geometry" />
        </mxCell>
        <mxCell id="8lcwkk5BvwK1nQJLz7jU-76" value="" style="edgeStyle=orthogonalEdgeStyle;rounded=0;orthogonalLoop=1;jettySize=auto;html=1;fontFamily=Helvetica;fontSize=10;" edge="1" parent="1" source="8lcwkk5BvwK1nQJLz7jU-73" target="8lcwkk5BvwK1nQJLz7jU-75">
          <mxGeometry relative="1" as="geometry" />
        </mxCell>
        <mxCell id="8lcwkk5BvwK1nQJLz7jU-73" value="for i=1 to max_orde" style="strokeWidth=2;html=1;shape=mxgraph.flowchart.loop_limit;whiteSpace=wrap;fontFamily=Helvetica;fontSize=10;" vertex="1" parent="1">
          <mxGeometry x="364" y="390" width="100" height="40" as="geometry" />
        </mxCell>
        <mxCell id="8lcwkk5BvwK1nQJLz7jU-78" value="" style="edgeStyle=orthogonalEdgeStyle;rounded=0;orthogonalLoop=1;jettySize=auto;html=1;fontFamily=Helvetica;fontSize=10;" edge="1" parent="1" source="8lcwkk5BvwK1nQJLz7jU-75" target="8lcwkk5BvwK1nQJLz7jU-77">
          <mxGeometry relative="1" as="geometry" />
        </mxCell>
        <mxCell id="8lcwkk5BvwK1nQJLz7jU-75" value="memasukkan order regresi ke dalam vector regresi" style="rounded=1;whiteSpace=wrap;html=1;fontSize=10;strokeWidth=2;" vertex="1" parent="1">
          <mxGeometry x="354" y="450" width="120" height="60" as="geometry" />
        </mxCell>
        <mxCell id="8lcwkk5BvwK1nQJLz7jU-96" value="" style="edgeStyle=orthogonalEdgeStyle;rounded=0;orthogonalLoop=1;jettySize=auto;html=1;fontFamily=Helvetica;fontSize=10;" edge="1" parent="1" source="8lcwkk5BvwK1nQJLz7jU-77" target="8lcwkk5BvwK1nQJLz7jU-89">
          <mxGeometry relative="1" as="geometry" />
        </mxCell>
        <mxCell id="8lcwkk5BvwK1nQJLz7jU-77" value="" style="strokeWidth=2;html=1;shape=mxgraph.flowchart.loop_limit;whiteSpace=wrap;fontFamily=Helvetica;fontSize=10;rotation=-180;" vertex="1" parent="1">
          <mxGeometry x="364" y="540" width="100" height="35" as="geometry" />
        </mxCell>
        <mxCell id="8lcwkk5BvwK1nQJLz7jU-141" value="" style="edgeStyle=orthogonalEdgeStyle;rounded=0;orthogonalLoop=1;jettySize=auto;html=1;fontFamily=Helvetica;fontSize=10;" edge="1" parent="1" source="8lcwkk5BvwK1nQJLz7jU-87" target="8lcwkk5BvwK1nQJLz7jU-140">
          <mxGeometry relative="1" as="geometry" />
        </mxCell>
        <mxCell id="8lcwkk5BvwK1nQJLz7jU-87" value="memasukkan value hsv min dan max ke dalam array hsv_threshold" style="rounded=1;whiteSpace=wrap;html=1;arcSize=14;strokeWidth=2;" vertex="1" parent="1">
          <mxGeometry x="514" y="240" width="190" height="60" as="geometry" />
        </mxCell>
        <mxCell id="8lcwkk5BvwK1nQJLz7jU-98" value="" style="edgeStyle=orthogonalEdgeStyle;rounded=0;orthogonalLoop=1;jettySize=auto;html=1;fontFamily=Helvetica;fontSize=10;entryX=0.5;entryY=0;entryDx=0;entryDy=0;" edge="1" parent="1" source="8lcwkk5BvwK1nQJLz7jU-89" target="8lcwkk5BvwK1nQJLz7jU-99">
          <mxGeometry relative="1" as="geometry">
            <mxPoint x="414.0666666666666" y="820" as="targetPoint" />
          </mxGeometry>
        </mxCell>
        <mxCell id="8lcwkk5BvwK1nQJLz7jU-89" value="&lt;div&gt;tim_50hz = NH.createTimer(ros::Duration(1/30), cllbck_tim_50hz);&lt;/div&gt;&lt;div&gt;&lt;br&gt;&lt;/div&gt;" style="rounded=1;whiteSpace=wrap;html=1;absoluteArcSize=1;arcSize=14;strokeWidth=2;" vertex="1" parent="1">
          <mxGeometry x="307" y="730" width="214" height="60" as="geometry" />
        </mxCell>
        <mxCell id="8lcwkk5BvwK1nQJLz7jU-102" value="" style="edgeStyle=orthogonalEdgeStyle;rounded=0;orthogonalLoop=1;jettySize=auto;html=1;fontFamily=Helvetica;fontSize=10;startArrow=none;" edge="1" parent="1" source="8lcwkk5BvwK1nQJLz7jU-105" target="8lcwkk5BvwK1nQJLz7jU-101">
          <mxGeometry relative="1" as="geometry" />
        </mxCell>
        <mxCell id="8lcwkk5BvwK1nQJLz7jU-104" value="" style="edgeStyle=orthogonalEdgeStyle;rounded=0;orthogonalLoop=1;jettySize=auto;html=1;fontFamily=Helvetica;fontSize=10;startArrow=none;" edge="1" parent="1" source="8lcwkk5BvwK1nQJLz7jU-107" target="8lcwkk5BvwK1nQJLz7jU-103">
          <mxGeometry relative="1" as="geometry" />
        </mxCell>
        <mxCell id="8lcwkk5BvwK1nQJLz7jU-99" value="if hue min &amp;gt; hue max" style="rhombus;whiteSpace=wrap;html=1;rounded=1;arcSize=14;strokeWidth=2;" vertex="1" parent="1">
          <mxGeometry x="326" y="830" width="176" height="80" as="geometry" />
        </mxCell>
        <mxCell id="8lcwkk5BvwK1nQJLz7jU-110" value="" style="edgeStyle=orthogonalEdgeStyle;rounded=0;orthogonalLoop=1;jettySize=auto;html=1;fontFamily=Helvetica;fontSize=10;" edge="1" parent="1" source="8lcwkk5BvwK1nQJLz7jU-101" target="8lcwkk5BvwK1nQJLz7jU-109">
          <mxGeometry relative="1" as="geometry" />
        </mxCell>
        <mxCell id="8lcwkk5BvwK1nQJLz7jU-101" value="menggunakan inrange function untuk masking pada frame_hsv dengan batas Scalar(0, saturation_min, value_min)&amp;nbsp; dan Scalar(hue_max, saturation_max, value_max)" style="whiteSpace=wrap;html=1;rounded=1;arcSize=14;strokeWidth=2;" vertex="1" parent="1">
          <mxGeometry x="589" y="816.25" width="166" height="107.5" as="geometry" />
        </mxCell>
        <mxCell id="8lcwkk5BvwK1nQJLz7jU-124" style="edgeStyle=orthogonalEdgeStyle;rounded=0;orthogonalLoop=1;jettySize=auto;html=1;entryX=0.25;entryY=1;entryDx=0;entryDy=0;fontFamily=Helvetica;fontSize=10;" edge="1" parent="1" source="8lcwkk5BvwK1nQJLz7jU-103" target="8lcwkk5BvwK1nQJLz7jU-120">
          <mxGeometry relative="1" as="geometry">
            <Array as="points">
              <mxPoint x="413" y="1190" />
              <mxPoint x="1200" y="1190" />
            </Array>
          </mxGeometry>
        </mxCell>
        <mxCell id="8lcwkk5BvwK1nQJLz7jU-103" value="menggunakan inrange function untuk masking pada frame_hsv dengan batas Scalar(hue_min, saturation_min, value_min) dan Scalar(hue_max, saturation_max, value_max)&amp;nbsp;" style="whiteSpace=wrap;html=1;rounded=1;arcSize=14;strokeWidth=2;" vertex="1" parent="1">
          <mxGeometry x="324" y="1000" width="179" height="110" as="geometry" />
        </mxCell>
        <mxCell id="8lcwkk5BvwK1nQJLz7jU-111" value="" style="edgeStyle=orthogonalEdgeStyle;rounded=0;orthogonalLoop=1;jettySize=auto;html=1;fontFamily=Helvetica;fontSize=10;entryX=0;entryY=0.5;entryDx=0;entryDy=0;" edge="1" parent="1" source="8lcwkk5BvwK1nQJLz7jU-105" target="8lcwkk5BvwK1nQJLz7jU-113">
          <mxGeometry relative="1" as="geometry">
            <Array as="points">
              <mxPoint x="564" y="870" />
              <mxPoint x="564" y="1095" />
            </Array>
          </mxGeometry>
        </mxCell>
        <mxCell id="8lcwkk5BvwK1nQJLz7jU-105" value="true" style="text;html=1;align=center;verticalAlign=middle;resizable=0;points=[];autosize=1;strokeColor=none;fillColor=none;fontSize=10;fontFamily=Helvetica;" vertex="1" parent="1">
          <mxGeometry x="521" y="855" width="40" height="30" as="geometry" />
        </mxCell>
        <mxCell id="8lcwkk5BvwK1nQJLz7jU-106" value="" style="edgeStyle=orthogonalEdgeStyle;rounded=0;orthogonalLoop=1;jettySize=auto;html=1;fontFamily=Helvetica;fontSize=10;endArrow=none;" edge="1" parent="1" source="8lcwkk5BvwK1nQJLz7jU-99" target="8lcwkk5BvwK1nQJLz7jU-105">
          <mxGeometry relative="1" as="geometry">
            <mxPoint x="502" y="870" as="sourcePoint" />
            <mxPoint x="610" y="870" as="targetPoint" />
          </mxGeometry>
        </mxCell>
        <mxCell id="8lcwkk5BvwK1nQJLz7jU-107" value="false" style="text;html=1;align=center;verticalAlign=middle;resizable=0;points=[];autosize=1;strokeColor=none;fillColor=none;fontSize=10;fontFamily=Helvetica;rotation=90;" vertex="1" parent="1">
          <mxGeometry x="394" y="930" width="40" height="30" as="geometry" />
        </mxCell>
        <mxCell id="8lcwkk5BvwK1nQJLz7jU-108" value="" style="edgeStyle=orthogonalEdgeStyle;rounded=0;orthogonalLoop=1;jettySize=auto;html=1;fontFamily=Helvetica;fontSize=10;endArrow=none;" edge="1" parent="1" source="8lcwkk5BvwK1nQJLz7jU-99" target="8lcwkk5BvwK1nQJLz7jU-107">
          <mxGeometry relative="1" as="geometry">
            <mxPoint x="414" y="910" as="sourcePoint" />
            <mxPoint x="414" y="1000" as="targetPoint" />
          </mxGeometry>
        </mxCell>
        <mxCell id="8lcwkk5BvwK1nQJLz7jU-117" value="" style="edgeStyle=orthogonalEdgeStyle;rounded=0;orthogonalLoop=1;jettySize=auto;html=1;fontFamily=Helvetica;fontSize=10;entryX=0;entryY=0.5;entryDx=0;entryDy=0;exitX=0.5;exitY=1;exitDx=0;exitDy=0;" edge="1" parent="1" source="8lcwkk5BvwK1nQJLz7jU-109" target="8lcwkk5BvwK1nQJLz7jU-116">
          <mxGeometry relative="1" as="geometry" />
        </mxCell>
        <mxCell id="8lcwkk5BvwK1nQJLz7jU-109" value="dstA" style="shape=parallelogram;perimeter=parallelogramPerimeter;whiteSpace=wrap;html=1;fixedSize=1;rounded=1;arcSize=14;strokeWidth=2;" vertex="1" parent="1">
          <mxGeometry x="838" y="840" width="120" height="60" as="geometry" />
        </mxCell>
        <mxCell id="8lcwkk5BvwK1nQJLz7jU-115" value="" style="edgeStyle=orthogonalEdgeStyle;rounded=0;orthogonalLoop=1;jettySize=auto;html=1;fontFamily=Helvetica;fontSize=10;" edge="1" parent="1" source="8lcwkk5BvwK1nQJLz7jU-113" target="8lcwkk5BvwK1nQJLz7jU-114">
          <mxGeometry relative="1" as="geometry" />
        </mxCell>
        <mxCell id="8lcwkk5BvwK1nQJLz7jU-113" value="menggunakan inrange function untuk masking pada frame_hsv dengan batas Scalar(hue_min, saturation_min, value_min) dan Scalar(180, saturation_max, value_max)&amp;nbsp;" style="whiteSpace=wrap;html=1;rounded=1;arcSize=14;strokeWidth=2;" vertex="1" parent="1">
          <mxGeometry x="584" y="1050" width="176" height="90" as="geometry" />
        </mxCell>
        <mxCell id="8lcwkk5BvwK1nQJLz7jU-119" value="" style="edgeStyle=orthogonalEdgeStyle;rounded=0;orthogonalLoop=1;jettySize=auto;html=1;fontFamily=Helvetica;fontSize=10;exitX=0.5;exitY=0;exitDx=0;exitDy=0;" edge="1" parent="1" source="8lcwkk5BvwK1nQJLz7jU-114">
          <mxGeometry relative="1" as="geometry">
            <mxPoint x="970" y="990" as="targetPoint" />
            <Array as="points">
              <mxPoint x="898" y="990" />
            </Array>
          </mxGeometry>
        </mxCell>
        <mxCell id="8lcwkk5BvwK1nQJLz7jU-114" value="dstB" style="shape=parallelogram;perimeter=parallelogramPerimeter;whiteSpace=wrap;html=1;fixedSize=1;rounded=1;arcSize=14;strokeWidth=2;" vertex="1" parent="1">
          <mxGeometry x="838" y="1065" width="120" height="60" as="geometry" />
        </mxCell>
        <mxCell id="8lcwkk5BvwK1nQJLz7jU-121" value="" style="edgeStyle=orthogonalEdgeStyle;rounded=0;orthogonalLoop=1;jettySize=auto;html=1;fontFamily=Helvetica;fontSize=10;" edge="1" parent="1" source="8lcwkk5BvwK1nQJLz7jU-116" target="8lcwkk5BvwK1nQJLz7jU-120">
          <mxGeometry relative="1" as="geometry" />
        </mxCell>
        <mxCell id="8lcwkk5BvwK1nQJLz7jU-116" value="menggunakan function bitwise_or untuk menentukan threshold pada bola" style="whiteSpace=wrap;html=1;rounded=1;arcSize=14;strokeWidth=2;" vertex="1" parent="1">
          <mxGeometry x="970" y="960" width="120" height="60" as="geometry" />
        </mxCell>
        <mxCell id="8lcwkk5BvwK1nQJLz7jU-126" value="" style="edgeStyle=orthogonalEdgeStyle;rounded=0;orthogonalLoop=1;jettySize=auto;html=1;fontFamily=Helvetica;fontSize=10;" edge="1" parent="1" source="8lcwkk5BvwK1nQJLz7jU-120" target="8lcwkk5BvwK1nQJLz7jU-125">
          <mxGeometry relative="1" as="geometry" />
        </mxCell>
        <mxCell id="8lcwkk5BvwK1nQJLz7jU-164" style="edgeStyle=orthogonalEdgeStyle;rounded=0;orthogonalLoop=1;jettySize=auto;html=1;entryX=0.5;entryY=1;entryDx=0;entryDy=0;fontFamily=Helvetica;fontSize=10;" edge="1" parent="1" source="8lcwkk5BvwK1nQJLz7jU-120" target="8lcwkk5BvwK1nQJLz7jU-162">
          <mxGeometry relative="1" as="geometry">
            <Array as="points">
              <mxPoint x="1230" y="720" />
              <mxPoint x="1098" y="720" />
            </Array>
          </mxGeometry>
        </mxCell>
        <mxCell id="8lcwkk5BvwK1nQJLz7jU-169" style="edgeStyle=orthogonalEdgeStyle;rounded=0;orthogonalLoop=1;jettySize=auto;html=1;fontFamily=Helvetica;fontSize=10;entryX=0.5;entryY=1;entryDx=0;entryDy=0;" edge="1" parent="1" source="8lcwkk5BvwK1nQJLz7jU-120" target="8lcwkk5BvwK1nQJLz7jU-170">
          <mxGeometry relative="1" as="geometry">
            <mxPoint x="1290" y="760" as="targetPoint" />
          </mxGeometry>
        </mxCell>
        <mxCell id="8lcwkk5BvwK1nQJLz7jU-179" value="" style="edgeStyle=orthogonalEdgeStyle;rounded=0;orthogonalLoop=1;jettySize=auto;html=1;fontFamily=Helvetica;fontSize=10;" edge="1" parent="1" source="8lcwkk5BvwK1nQJLz7jU-120" target="8lcwkk5BvwK1nQJLz7jU-178">
          <mxGeometry relative="1" as="geometry" />
        </mxCell>
        <mxCell id="8lcwkk5BvwK1nQJLz7jU-120" value="ball_threshold" style="shape=parallelogram;perimeter=parallelogramPerimeter;whiteSpace=wrap;html=1;fixedSize=1;rounded=1;arcSize=14;strokeWidth=2;" vertex="1" parent="1">
          <mxGeometry x="1170" y="960" width="120" height="60" as="geometry" />
        </mxCell>
        <mxCell id="8lcwkk5BvwK1nQJLz7jU-127" value="" style="edgeStyle=orthogonalEdgeStyle;rounded=0;orthogonalLoop=1;jettySize=auto;html=1;fontFamily=Helvetica;fontSize=10;" edge="1" parent="1" source="8lcwkk5BvwK1nQJLz7jU-125" target="8lcwkk5BvwK1nQJLz7jU-120">
          <mxGeometry relative="1" as="geometry" />
        </mxCell>
        <mxCell id="8lcwkk5BvwK1nQJLz7jU-125" value="morphology erode dan dilate untuk mengurangi noise dengan struktur elemen rectangular pada ball_threshold" style="whiteSpace=wrap;html=1;rounded=1;arcSize=14;strokeWidth=2;" vertex="1" parent="1">
          <mxGeometry x="1410" y="935" width="120" height="110" as="geometry" />
        </mxCell>
        <mxCell id="8lcwkk5BvwK1nQJLz7jU-131" value="" style="edgeStyle=orthogonalEdgeStyle;rounded=0;orthogonalLoop=1;jettySize=auto;html=1;fontFamily=Helvetica;fontSize=10;" edge="1" parent="1" source="8lcwkk5BvwK1nQJLz7jU-128" target="8lcwkk5BvwK1nQJLz7jU-130">
          <mxGeometry relative="1" as="geometry" />
        </mxCell>
        <mxCell id="8lcwkk5BvwK1nQJLz7jU-128" value="Subscribe" style="rounded=1;whiteSpace=wrap;html=1;strokeWidth=2;" vertex="1" parent="1">
          <mxGeometry x="838" y="120" width="120" height="60" as="geometry" />
        </mxCell>
        <mxCell id="8lcwkk5BvwK1nQJLz7jU-133" value="" style="edgeStyle=orthogonalEdgeStyle;rounded=0;orthogonalLoop=1;jettySize=auto;html=1;fontFamily=Helvetica;fontSize=10;" edge="1" parent="1" source="8lcwkk5BvwK1nQJLz7jU-130" target="8lcwkk5BvwK1nQJLz7jU-132">
          <mxGeometry relative="1" as="geometry" />
        </mxCell>
        <mxCell id="8lcwkk5BvwK1nQJLz7jU-157" value="" style="edgeStyle=orthogonalEdgeStyle;rounded=0;orthogonalLoop=1;jettySize=auto;html=1;fontFamily=Helvetica;fontSize=10;" edge="1" parent="1" source="8lcwkk5BvwK1nQJLz7jU-130" target="8lcwkk5BvwK1nQJLz7jU-156">
          <mxGeometry relative="1" as="geometry" />
        </mxCell>
        <mxCell id="8lcwkk5BvwK1nQJLz7jU-130" value="menerima msg dan memasukkan image ke frame bgr" style="whiteSpace=wrap;html=1;rounded=1;strokeWidth=2;" vertex="1" parent="1">
          <mxGeometry x="838" y="210" width="120" height="60" as="geometry" />
        </mxCell>
        <mxCell id="8lcwkk5BvwK1nQJLz7jU-135" value="" style="edgeStyle=orthogonalEdgeStyle;rounded=0;orthogonalLoop=1;jettySize=auto;html=1;fontFamily=Helvetica;fontSize=10;" edge="1" parent="1" source="8lcwkk5BvwK1nQJLz7jU-132" target="8lcwkk5BvwK1nQJLz7jU-134">
          <mxGeometry relative="1" as="geometry" />
        </mxCell>
        <mxCell id="8lcwkk5BvwK1nQJLz7jU-159" value="" style="edgeStyle=orthogonalEdgeStyle;rounded=0;orthogonalLoop=1;jettySize=auto;html=1;fontFamily=Helvetica;fontSize=10;" edge="1" parent="1" source="8lcwkk5BvwK1nQJLz7jU-132" target="8lcwkk5BvwK1nQJLz7jU-158">
          <mxGeometry relative="1" as="geometry" />
        </mxCell>
        <mxCell id="8lcwkk5BvwK1nQJLz7jU-132" value="menerima msg dan memasukkan image ke frame hsv" style="whiteSpace=wrap;html=1;rounded=1;strokeWidth=2;" vertex="1" parent="1">
          <mxGeometry x="838" y="300" width="120" height="60" as="geometry" />
        </mxCell>
        <mxCell id="8lcwkk5BvwK1nQJLz7jU-137" value="" style="edgeStyle=orthogonalEdgeStyle;rounded=0;orthogonalLoop=1;jettySize=auto;html=1;fontFamily=Helvetica;fontSize=10;" edge="1" parent="1" source="8lcwkk5BvwK1nQJLz7jU-134" target="8lcwkk5BvwK1nQJLz7jU-136">
          <mxGeometry relative="1" as="geometry" />
        </mxCell>
        <mxCell id="8lcwkk5BvwK1nQJLz7jU-161" value="" style="edgeStyle=orthogonalEdgeStyle;rounded=0;orthogonalLoop=1;jettySize=auto;html=1;fontFamily=Helvetica;fontSize=10;" edge="1" parent="1" source="8lcwkk5BvwK1nQJLz7jU-134" target="8lcwkk5BvwK1nQJLz7jU-160">
          <mxGeometry relative="1" as="geometry" />
        </mxCell>
        <mxCell id="8lcwkk5BvwK1nQJLz7jU-134" value="menerima msg dan memasukkan image ke field threshold" style="whiteSpace=wrap;html=1;rounded=1;strokeWidth=2;" vertex="1" parent="1">
          <mxGeometry x="838" y="390" width="120" height="60" as="geometry" />
        </mxCell>
        <mxCell id="8lcwkk5BvwK1nQJLz7jU-150" value="" style="edgeStyle=orthogonalEdgeStyle;rounded=0;orthogonalLoop=1;jettySize=auto;html=1;fontFamily=Helvetica;fontSize=10;" edge="1" parent="1" source="8lcwkk5BvwK1nQJLz7jU-136" target="8lcwkk5BvwK1nQJLz7jU-147">
          <mxGeometry relative="1" as="geometry" />
        </mxCell>
        <mxCell id="8lcwkk5BvwK1nQJLz7jU-136" value="menerima msg x, msg y, msg theta, dan memasukkan ke posisi x, y dan theta" style="whiteSpace=wrap;html=1;rounded=1;strokeWidth=2;" vertex="1" parent="1">
          <mxGeometry x="838" y="490" width="120" height="60" as="geometry" />
        </mxCell>
        <mxCell id="8lcwkk5BvwK1nQJLz7jU-153" value="" style="edgeStyle=orthogonalEdgeStyle;rounded=0;orthogonalLoop=1;jettySize=auto;html=1;fontFamily=Helvetica;fontSize=10;" edge="1" parent="1" source="8lcwkk5BvwK1nQJLz7jU-138" target="8lcwkk5BvwK1nQJLz7jU-151">
          <mxGeometry relative="1" as="geometry" />
        </mxCell>
        <mxCell id="8lcwkk5BvwK1nQJLz7jU-138" value="memasukkan callback msg dari angular ke array hsv threshold" style="whiteSpace=wrap;html=1;rounded=1;strokeWidth=2;" vertex="1" parent="1">
          <mxGeometry x="795.5" y="650" width="205" height="60" as="geometry" />
        </mxCell>
        <mxCell id="8lcwkk5BvwK1nQJLz7jU-142" style="edgeStyle=orthogonalEdgeStyle;rounded=0;orthogonalLoop=1;jettySize=auto;html=1;entryX=1;entryY=0.5;entryDx=0;entryDy=0;fontFamily=Helvetica;fontSize=10;exitX=0.5;exitY=1;exitDx=0;exitDy=0;" edge="1" parent="1" source="8lcwkk5BvwK1nQJLz7jU-140" target="8lcwkk5BvwK1nQJLz7jU-89">
          <mxGeometry relative="1" as="geometry" />
        </mxCell>
        <mxCell id="8lcwkk5BvwK1nQJLz7jU-140" value="hsv_threshold" style="shape=parallelogram;perimeter=parallelogramPerimeter;whiteSpace=wrap;html=1;fixedSize=1;rounded=1;arcSize=14;strokeWidth=2;" vertex="1" parent="1">
          <mxGeometry x="549" y="380" width="120" height="60" as="geometry" />
        </mxCell>
        <mxCell id="8lcwkk5BvwK1nQJLz7jU-152" value="" style="edgeStyle=orthogonalEdgeStyle;rounded=0;orthogonalLoop=1;jettySize=auto;html=1;fontFamily=Helvetica;fontSize=10;" edge="1" parent="1" source="8lcwkk5BvwK1nQJLz7jU-147" target="8lcwkk5BvwK1nQJLz7jU-138">
          <mxGeometry relative="1" as="geometry" />
        </mxCell>
        <mxCell id="8lcwkk5BvwK1nQJLz7jU-147" value="for i=1 to 6" style="strokeWidth=2;html=1;shape=mxgraph.flowchart.loop_limit;whiteSpace=wrap;fontFamily=Helvetica;fontSize=10;" vertex="1" parent="1">
          <mxGeometry x="848" y="575" width="100" height="40" as="geometry" />
        </mxCell>
        <mxCell id="8lcwkk5BvwK1nQJLz7jU-154" style="edgeStyle=orthogonalEdgeStyle;rounded=0;orthogonalLoop=1;jettySize=auto;html=1;entryX=1;entryY=0.25;entryDx=0;entryDy=0;fontFamily=Helvetica;fontSize=10;" edge="1" parent="1" source="8lcwkk5BvwK1nQJLz7jU-151" target="8lcwkk5BvwK1nQJLz7jU-59">
          <mxGeometry relative="1" as="geometry" />
        </mxCell>
        <mxCell id="8lcwkk5BvwK1nQJLz7jU-151" value="" style="strokeWidth=2;html=1;shape=mxgraph.flowchart.loop_limit;whiteSpace=wrap;fontFamily=Helvetica;fontSize=10;rotation=-180;" vertex="1" parent="1">
          <mxGeometry x="848" y="735" width="100" height="35" as="geometry" />
        </mxCell>
        <mxCell id="8lcwkk5BvwK1nQJLz7jU-174" value="" style="edgeStyle=orthogonalEdgeStyle;rounded=0;orthogonalLoop=1;jettySize=auto;html=1;fontFamily=Helvetica;fontSize=10;" edge="1" parent="1" source="8lcwkk5BvwK1nQJLz7jU-156" target="8lcwkk5BvwK1nQJLz7jU-173">
          <mxGeometry relative="1" as="geometry" />
        </mxCell>
        <mxCell id="8lcwkk5BvwK1nQJLz7jU-156" value="frame_bgr" style="shape=parallelogram;perimeter=parallelogramPerimeter;whiteSpace=wrap;html=1;fixedSize=1;rounded=1;strokeWidth=2;" vertex="1" parent="1">
          <mxGeometry x="1038" y="210" width="120" height="60" as="geometry" />
        </mxCell>
        <mxCell id="8lcwkk5BvwK1nQJLz7jU-158" value="frame_hsv" style="shape=parallelogram;perimeter=parallelogramPerimeter;whiteSpace=wrap;html=1;fixedSize=1;rounded=1;strokeWidth=2;" vertex="1" parent="1">
          <mxGeometry x="1038" y="300" width="120" height="60" as="geometry" />
        </mxCell>
        <mxCell id="8lcwkk5BvwK1nQJLz7jU-163" style="edgeStyle=orthogonalEdgeStyle;rounded=0;orthogonalLoop=1;jettySize=auto;html=1;entryX=0.5;entryY=0;entryDx=0;entryDy=0;fontFamily=Helvetica;fontSize=10;" edge="1" parent="1" source="8lcwkk5BvwK1nQJLz7jU-160" target="8lcwkk5BvwK1nQJLz7jU-162">
          <mxGeometry relative="1" as="geometry" />
        </mxCell>
        <mxCell id="8lcwkk5BvwK1nQJLz7jU-167" value="" style="edgeStyle=orthogonalEdgeStyle;rounded=0;orthogonalLoop=1;jettySize=auto;html=1;fontFamily=Helvetica;fontSize=10;" edge="1" parent="1" source="8lcwkk5BvwK1nQJLz7jU-160" target="8lcwkk5BvwK1nQJLz7jU-166">
          <mxGeometry relative="1" as="geometry" />
        </mxCell>
        <mxCell id="8lcwkk5BvwK1nQJLz7jU-160" value="field_threshold" style="shape=parallelogram;perimeter=parallelogramPerimeter;whiteSpace=wrap;html=1;fixedSize=1;rounded=1;strokeWidth=2;" vertex="1" parent="1">
          <mxGeometry x="1038" y="390" width="120" height="60" as="geometry" />
        </mxCell>
        <mxCell id="8lcwkk5BvwK1nQJLz7jU-165" style="edgeStyle=orthogonalEdgeStyle;rounded=0;orthogonalLoop=1;jettySize=auto;html=1;entryX=0.5;entryY=0;entryDx=0;entryDy=0;fontFamily=Helvetica;fontSize=10;" edge="1" parent="1" source="8lcwkk5BvwK1nQJLz7jU-162" target="8lcwkk5BvwK1nQJLz7jU-120">
          <mxGeometry relative="1" as="geometry">
            <Array as="points">
              <mxPoint x="1098" y="720" />
              <mxPoint x="1230" y="720" />
            </Array>
          </mxGeometry>
        </mxCell>
        <mxCell id="8lcwkk5BvwK1nQJLz7jU-162" value="menggunakan function bitwise_or untuk menentukan threshold pada bola" style="whiteSpace=wrap;html=1;rounded=1;arcSize=14;strokeWidth=2;" vertex="1" parent="1">
          <mxGeometry x="1038" y="540" width="120" height="60" as="geometry" />
        </mxCell>
        <mxCell id="8lcwkk5BvwK1nQJLz7jU-166" value="menggunakan circle functiln untuk mengabaikan lingkaran tengah dan pinggir" style="whiteSpace=wrap;html=1;rounded=1;strokeWidth=2;" vertex="1" parent="1">
          <mxGeometry x="1238" y="390" width="162" height="60" as="geometry" />
        </mxCell>
        <mxCell id="8lcwkk5BvwK1nQJLz7jU-172" value="" style="edgeStyle=orthogonalEdgeStyle;rounded=0;orthogonalLoop=1;jettySize=auto;html=1;fontFamily=Helvetica;fontSize=10;" edge="1" parent="1" source="8lcwkk5BvwK1nQJLz7jU-170" target="8lcwkk5BvwK1nQJLz7jU-171">
          <mxGeometry relative="1" as="geometry" />
        </mxCell>
        <mxCell id="8lcwkk5BvwK1nQJLz7jU-170" value="clone ball_threshold" style="whiteSpace=wrap;html=1;rounded=1;arcSize=14;strokeWidth=2;" vertex="1" parent="1">
          <mxGeometry x="1280" y="700" width="120" height="60" as="geometry" />
        </mxCell>
        <mxCell id="8lcwkk5BvwK1nQJLz7jU-181" value="" style="edgeStyle=orthogonalEdgeStyle;rounded=0;orthogonalLoop=1;jettySize=auto;html=1;fontFamily=Helvetica;fontSize=10;" edge="1" parent="1" source="8lcwkk5BvwK1nQJLz7jU-171" target="8lcwkk5BvwK1nQJLz7jU-180">
          <mxGeometry relative="1" as="geometry" />
        </mxCell>
        <mxCell id="8lcwkk5BvwK1nQJLz7jU-171" value="raw_threshold" style="shape=parallelogram;perimeter=parallelogramPerimeter;whiteSpace=wrap;html=1;fixedSize=1;rounded=1;arcSize=14;strokeWidth=2;" vertex="1" parent="1">
          <mxGeometry x="1280" y="560" width="120" height="60" as="geometry" />
        </mxCell>
        <mxCell id="8lcwkk5BvwK1nQJLz7jU-176" value="" style="edgeStyle=orthogonalEdgeStyle;rounded=0;orthogonalLoop=1;jettySize=auto;html=1;fontFamily=Helvetica;fontSize=10;" edge="1" parent="1" source="8lcwkk5BvwK1nQJLz7jU-173" target="8lcwkk5BvwK1nQJLz7jU-175">
          <mxGeometry relative="1" as="geometry" />
        </mxCell>
        <mxCell id="8lcwkk5BvwK1nQJLz7jU-173" value="clone frame_bgr" style="whiteSpace=wrap;html=1;rounded=1;strokeWidth=2;" vertex="1" parent="1">
          <mxGeometry x="1238" y="210" width="120" height="60" as="geometry" />
        </mxCell>
        <mxCell id="8lcwkk5BvwK1nQJLz7jU-175" value="display_in" style="shape=parallelogram;perimeter=parallelogramPerimeter;whiteSpace=wrap;html=1;fixedSize=1;rounded=1;strokeWidth=2;" vertex="1" parent="1">
          <mxGeometry x="1438" y="210" width="120" height="60" as="geometry" />
        </mxCell>
        <mxCell id="8lcwkk5BvwK1nQJLz7jU-178" value="mengubah ball_threshold menjadi wana hitam Scalar(0)" style="whiteSpace=wrap;html=1;rounded=1;arcSize=14;strokeWidth=2;" vertex="1" parent="1">
          <mxGeometry x="1259" y="1109" width="120" height="60" as="geometry" />
        </mxCell>
        <mxCell id="8lcwkk5BvwK1nQJLz7jU-183" value="" style="edgeStyle=orthogonalEdgeStyle;rounded=0;orthogonalLoop=1;jettySize=auto;html=1;fontFamily=Helvetica;fontSize=10;" edge="1" parent="1" source="8lcwkk5BvwK1nQJLz7jU-180" target="8lcwkk5BvwK1nQJLz7jU-182">
          <mxGeometry relative="1" as="geometry" />
        </mxCell>
        <mxCell id="8lcwkk5BvwK1nQJLz7jU-180" value="logika find contours" style="whiteSpace=wrap;html=1;rounded=1;arcSize=14;strokeWidth=2;" vertex="1" parent="1">
          <mxGeometry x="1480" y="560" width="120" height="60" as="geometry" />
        </mxCell>
        <mxCell id="8lcwkk5BvwK1nQJLz7jU-185" value="" style="edgeStyle=orthogonalEdgeStyle;rounded=0;orthogonalLoop=1;jettySize=auto;html=1;fontFamily=Helvetica;fontSize=10;" edge="1" parent="1" source="8lcwkk5BvwK1nQJLz7jU-182" target="8lcwkk5BvwK1nQJLz7jU-184">
          <mxGeometry relative="1" as="geometry" />
        </mxCell>
        <mxCell id="8lcwkk5BvwK1nQJLz7jU-191" value="" style="edgeStyle=orthogonalEdgeStyle;rounded=0;orthogonalLoop=1;jettySize=auto;html=1;fontFamily=Helvetica;fontSize=10;" edge="1" parent="1" source="8lcwkk5BvwK1nQJLz7jU-182" target="8lcwkk5BvwK1nQJLz7jU-190">
          <mxGeometry relative="1" as="geometry" />
        </mxCell>
        <mxCell id="8lcwkk5BvwK1nQJLz7jU-182" value="contours" style="shape=parallelogram;perimeter=parallelogramPerimeter;whiteSpace=wrap;html=1;fixedSize=1;rounded=1;arcSize=14;strokeWidth=2;" vertex="1" parent="1">
          <mxGeometry x="1480" y="675" width="120" height="60" as="geometry" />
        </mxCell>
        <mxCell id="8lcwkk5BvwK1nQJLz7jU-189" value="" style="edgeStyle=orthogonalEdgeStyle;rounded=0;orthogonalLoop=1;jettySize=auto;html=1;fontFamily=Helvetica;fontSize=10;" edge="1" parent="1" source="8lcwkk5BvwK1nQJLz7jU-184" target="8lcwkk5BvwK1nQJLz7jU-188">
          <mxGeometry relative="1" as="geometry" />
        </mxCell>
        <mxCell id="8lcwkk5BvwK1nQJLz7jU-184" value="logika find largest contours" style="whiteSpace=wrap;html=1;rounded=1;arcSize=14;strokeWidth=2;" vertex="1" parent="1">
          <mxGeometry x="1480" y="810" width="120" height="60" as="geometry" />
        </mxCell>
        <mxCell id="8lcwkk5BvwK1nQJLz7jU-188" value="largest_contours" style="shape=parallelogram;perimeter=parallelogramPerimeter;whiteSpace=wrap;html=1;fixedSize=1;rounded=1;arcSize=14;strokeWidth=2;" vertex="1" parent="1">
          <mxGeometry x="1650" y="810" width="120" height="60" as="geometry" />
        </mxCell>
        <mxCell id="8lcwkk5BvwK1nQJLz7jU-193" value="" style="edgeStyle=orthogonalEdgeStyle;rounded=0;orthogonalLoop=1;jettySize=auto;html=1;fontFamily=Helvetica;fontSize=10;startArrow=none;" edge="1" parent="1" source="8lcwkk5BvwK1nQJLz7jU-194" target="8lcwkk5BvwK1nQJLz7jU-192">
          <mxGeometry relative="1" as="geometry" />
        </mxCell>
        <mxCell id="8lcwkk5BvwK1nQJLz7jU-197" value="" style="edgeStyle=orthogonalEdgeStyle;rounded=0;orthogonalLoop=1;jettySize=auto;html=1;fontFamily=Helvetica;fontSize=10;startArrow=none;" edge="1" parent="1" source="8lcwkk5BvwK1nQJLz7jU-198" target="8lcwkk5BvwK1nQJLz7jU-196">
          <mxGeometry relative="1" as="geometry" />
        </mxCell>
        <mxCell id="8lcwkk5BvwK1nQJLz7jU-190" value="if contours.size()" style="rhombus;whiteSpace=wrap;html=1;rounded=1;arcSize=14;strokeWidth=2;" vertex="1" parent="1">
          <mxGeometry x="1700" y="642.5" width="120" height="125" as="geometry" />
        </mxCell>
        <mxCell id="8lcwkk5BvwK1nQJLz7jU-200" style="edgeStyle=orthogonalEdgeStyle;rounded=0;orthogonalLoop=1;jettySize=auto;html=1;fontFamily=Helvetica;fontSize=10;entryX=0;entryY=0;entryDx=0;entryDy=0;" edge="1" parent="1" source="8lcwkk5BvwK1nQJLz7jU-192" target="8lcwkk5BvwK1nQJLz7jU-202">
          <mxGeometry relative="1" as="geometry">
            <mxPoint x="1900" y="590" as="targetPoint" />
          </mxGeometry>
        </mxCell>
        <mxCell id="8lcwkk5BvwK1nQJLz7jU-192" value="counter_bola_in +=17&lt;br&gt;counter_bola_out = 0" style="whiteSpace=wrap;html=1;rounded=1;arcSize=14;strokeWidth=2;" vertex="1" parent="1">
          <mxGeometry x="1700" y="470" width="120" height="60" as="geometry" />
        </mxCell>
        <mxCell id="8lcwkk5BvwK1nQJLz7jU-194" value="True&lt;br&gt;" style="text;html=1;align=center;verticalAlign=middle;resizable=0;points=[];autosize=1;strokeColor=none;fillColor=none;fontSize=10;fontFamily=Helvetica;" vertex="1" parent="1">
          <mxGeometry x="1740" y="570" width="40" height="30" as="geometry" />
        </mxCell>
        <mxCell id="8lcwkk5BvwK1nQJLz7jU-195" value="" style="edgeStyle=orthogonalEdgeStyle;rounded=0;orthogonalLoop=1;jettySize=auto;html=1;fontFamily=Helvetica;fontSize=10;endArrow=none;" edge="1" parent="1" source="8lcwkk5BvwK1nQJLz7jU-190" target="8lcwkk5BvwK1nQJLz7jU-194">
          <mxGeometry relative="1" as="geometry">
            <mxPoint x="1760" y="642.5" as="sourcePoint" />
            <mxPoint x="1760" y="530" as="targetPoint" />
          </mxGeometry>
        </mxCell>
        <mxCell id="8lcwkk5BvwK1nQJLz7jU-201" style="edgeStyle=orthogonalEdgeStyle;rounded=0;orthogonalLoop=1;jettySize=auto;html=1;fontFamily=Helvetica;fontSize=10;" edge="1" parent="1" source="8lcwkk5BvwK1nQJLz7jU-196" target="8lcwkk5BvwK1nQJLz7jU-202">
          <mxGeometry relative="1" as="geometry">
            <mxPoint x="1930" y="610" as="targetPoint" />
          </mxGeometry>
        </mxCell>
        <mxCell id="8lcwkk5BvwK1nQJLz7jU-196" value="counter_bola_in = 0&lt;br&gt;counrter_bola_out +=17" style="whiteSpace=wrap;html=1;rounded=1;arcSize=14;strokeWidth=2;" vertex="1" parent="1">
          <mxGeometry x="1900" y="675" width="120" height="60" as="geometry" />
        </mxCell>
        <mxCell id="8lcwkk5BvwK1nQJLz7jU-198" value="false" style="text;html=1;align=center;verticalAlign=middle;resizable=0;points=[];autosize=1;strokeColor=none;fillColor=none;fontSize=10;fontFamily=Helvetica;" vertex="1" parent="1">
          <mxGeometry x="1840" y="690" width="40" height="30" as="geometry" />
        </mxCell>
        <mxCell id="8lcwkk5BvwK1nQJLz7jU-199" value="" style="edgeStyle=orthogonalEdgeStyle;rounded=0;orthogonalLoop=1;jettySize=auto;html=1;fontFamily=Helvetica;fontSize=10;endArrow=none;" edge="1" parent="1" source="8lcwkk5BvwK1nQJLz7jU-190" target="8lcwkk5BvwK1nQJLz7jU-198">
          <mxGeometry relative="1" as="geometry">
            <mxPoint x="1820" y="705" as="sourcePoint" />
            <mxPoint x="1900" y="705" as="targetPoint" />
          </mxGeometry>
        </mxCell>
        <mxCell id="8lcwkk5BvwK1nQJLz7jU-203" style="edgeStyle=orthogonalEdgeStyle;rounded=0;orthogonalLoop=1;jettySize=auto;html=1;fontFamily=Helvetica;fontSize=10;startArrow=none;" edge="1" parent="1" source="8lcwkk5BvwK1nQJLz7jU-204">
          <mxGeometry relative="1" as="geometry">
            <mxPoint x="2140" y="570" as="targetPoint" />
          </mxGeometry>
        </mxCell>
        <mxCell id="8lcwkk5BvwK1nQJLz7jU-206" style="edgeStyle=orthogonalEdgeStyle;rounded=0;orthogonalLoop=1;jettySize=auto;html=1;fontFamily=Helvetica;fontSize=10;startArrow=none;" edge="1" parent="1" source="8lcwkk5BvwK1nQJLz7jU-207">
          <mxGeometry relative="1" as="geometry">
            <mxPoint x="1985.0000000000005" y="430" as="targetPoint" />
          </mxGeometry>
        </mxCell>
        <mxCell id="8lcwkk5BvwK1nQJLz7jU-202" value="if counter_bola_in&amp;gt;100" style="rhombus;whiteSpace=wrap;html=1;rounded=1;arcSize=14;strokeWidth=2;" vertex="1" parent="1">
          <mxGeometry x="1920" y="507.5" width="130" height="125" as="geometry" />
        </mxCell>
        <mxCell id="8lcwkk5BvwK1nQJLz7jU-204" value="false" style="text;html=1;align=center;verticalAlign=middle;resizable=0;points=[];autosize=1;strokeColor=none;fillColor=none;fontSize=10;fontFamily=Helvetica;" vertex="1" parent="1">
          <mxGeometry x="2068" y="555" width="40" height="30" as="geometry" />
        </mxCell>
        <mxCell id="8lcwkk5BvwK1nQJLz7jU-205" value="" style="edgeStyle=orthogonalEdgeStyle;rounded=0;orthogonalLoop=1;jettySize=auto;html=1;fontFamily=Helvetica;fontSize=10;endArrow=none;" edge="1" parent="1" source="8lcwkk5BvwK1nQJLz7jU-202" target="8lcwkk5BvwK1nQJLz7jU-204">
          <mxGeometry relative="1" as="geometry">
            <mxPoint x="2140" y="570" as="targetPoint" />
            <mxPoint x="2050.0000000000005" y="570" as="sourcePoint" />
          </mxGeometry>
        </mxCell>
        <mxCell id="8lcwkk5BvwK1nQJLz7jU-207" value="true" style="text;html=1;align=center;verticalAlign=middle;resizable=0;points=[];autosize=1;strokeColor=none;fillColor=none;fontSize=10;fontFamily=Helvetica;" vertex="1" parent="1">
          <mxGeometry x="1965" y="465" width="40" height="30" as="geometry" />
        </mxCell>
        <mxCell id="8lcwkk5BvwK1nQJLz7jU-208" value="" style="edgeStyle=orthogonalEdgeStyle;rounded=0;orthogonalLoop=1;jettySize=auto;html=1;fontFamily=Helvetica;fontSize=10;endArrow=none;" edge="1" parent="1" source="8lcwkk5BvwK1nQJLz7jU-202" target="8lcwkk5BvwK1nQJLz7jU-207">
          <mxGeometry relative="1" as="geometry">
            <mxPoint x="1985.0000000000005" y="430" as="targetPoint" />
            <mxPoint x="1985.0000000000005" y="507.5" as="sourcePoint" />
          </mxGeometry>
        </mxCell>
        <mxCell id="8lcwkk5BvwK1nQJLz7jU-219" value="" style="edgeStyle=orthogonalEdgeStyle;rounded=0;orthogonalLoop=1;jettySize=auto;html=1;fontFamily=Helvetica;fontSize=10;" edge="1" parent="1" source="8lcwkk5BvwK1nQJLz7jU-209" target="8lcwkk5BvwK1nQJLz7jU-218">
          <mxGeometry relative="1" as="geometry" />
        </mxCell>
        <mxCell id="8lcwkk5BvwK1nQJLz7jU-209" value="status_bola=1" style="whiteSpace=wrap;html=1;rounded=1;arcSize=14;strokeWidth=2;" vertex="1" parent="1">
          <mxGeometry x="1925" y="370" width="120" height="60" as="geometry" />
        </mxCell>
        <mxCell id="8lcwkk5BvwK1nQJLz7jU-212" value="" style="edgeStyle=orthogonalEdgeStyle;rounded=0;orthogonalLoop=1;jettySize=auto;html=1;fontFamily=Helvetica;fontSize=10;startArrow=none;" edge="1" parent="1" source="8lcwkk5BvwK1nQJLz7jU-216" target="8lcwkk5BvwK1nQJLz7jU-211">
          <mxGeometry relative="1" as="geometry" />
        </mxCell>
        <mxCell id="8lcwkk5BvwK1nQJLz7jU-210" value="else if counter_bola_out &amp;gt;300" style="rhombus;whiteSpace=wrap;html=1;rounded=1;arcSize=14;strokeWidth=2;" vertex="1" parent="1">
          <mxGeometry x="2140" y="507.5" width="150" height="142.5" as="geometry" />
        </mxCell>
        <mxCell id="8lcwkk5BvwK1nQJLz7jU-211" value="status_bola = 0" style="whiteSpace=wrap;html=1;rounded=1;arcSize=14;strokeWidth=2;" vertex="1" parent="1">
          <mxGeometry x="2385" y="548.75" width="120" height="60" as="geometry" />
        </mxCell>
        <mxCell id="8lcwkk5BvwK1nQJLz7jU-216" value="true" style="text;html=1;align=center;verticalAlign=middle;resizable=0;points=[];autosize=1;strokeColor=none;fillColor=none;fontSize=10;fontFamily=Helvetica;" vertex="1" parent="1">
          <mxGeometry x="2310" y="563.75" width="40" height="30" as="geometry" />
        </mxCell>
        <mxCell id="8lcwkk5BvwK1nQJLz7jU-217" value="" style="edgeStyle=orthogonalEdgeStyle;rounded=0;orthogonalLoop=1;jettySize=auto;html=1;fontFamily=Helvetica;fontSize=10;endArrow=none;" edge="1" parent="1" source="8lcwkk5BvwK1nQJLz7jU-210" target="8lcwkk5BvwK1nQJLz7jU-216">
          <mxGeometry relative="1" as="geometry">
            <mxPoint x="2289.9624060150377" y="578.7142857142858" as="sourcePoint" />
            <mxPoint x="2385" y="578.8571428571429" as="targetPoint" />
          </mxGeometry>
        </mxCell>
        <mxCell id="8lcwkk5BvwK1nQJLz7jU-221" value="" style="edgeStyle=orthogonalEdgeStyle;rounded=0;orthogonalLoop=1;jettySize=auto;html=1;fontFamily=Helvetica;fontSize=10;" edge="1" parent="1" source="8lcwkk5BvwK1nQJLz7jU-218" target="8lcwkk5BvwK1nQJLz7jU-220">
          <mxGeometry relative="1" as="geometry" />
        </mxCell>
        <mxCell id="8lcwkk5BvwK1nQJLz7jU-218" value="memperbaruai posisi bola terhadap frame" style="whiteSpace=wrap;html=1;rounded=1;arcSize=14;strokeWidth=2;" vertex="1" parent="1">
          <mxGeometry x="1925" y="230" width="120" height="60" as="geometry" />
        </mxCell>
        <mxCell id="8lcwkk5BvwK1nQJLz7jU-223" value="" style="edgeStyle=orthogonalEdgeStyle;rounded=0;orthogonalLoop=1;jettySize=auto;html=1;fontFamily=Helvetica;fontSize=10;" edge="1" parent="1" source="8lcwkk5BvwK1nQJLz7jU-220" target="8lcwkk5BvwK1nQJLz7jU-222">
          <mxGeometry relative="1" as="geometry" />
        </mxCell>
        <mxCell id="8lcwkk5BvwK1nQJLz7jU-220" value="logika memperbarui posisi bola terhadap frame dan lapangan" style="whiteSpace=wrap;html=1;rounded=1;arcSize=14;strokeWidth=2;" vertex="1" parent="1">
          <mxGeometry x="1925" y="90" width="120" height="60" as="geometry" />
        </mxCell>
        <mxCell id="8lcwkk5BvwK1nQJLz7jU-225" value="" style="edgeStyle=orthogonalEdgeStyle;rounded=0;orthogonalLoop=1;jettySize=auto;html=1;fontFamily=Helvetica;fontSize=10;" edge="1" parent="1" source="8lcwkk5BvwK1nQJLz7jU-222" target="8lcwkk5BvwK1nQJLz7jU-224">
          <mxGeometry relative="1" as="geometry" />
        </mxCell>
        <mxCell id="8lcwkk5BvwK1nQJLz7jU-222" value="status_bola&lt;br&gt;bola_x_pada_frame&lt;br&gt;bola_y_pada_frame&lt;br&gt;bola_theta_pada_frame&lt;br&gt;bola_x_pada_lapangan&lt;br&gt;bola_y_pada_lapangan&lt;br&gt;bola_theta_pada_lapangan" style="shape=parallelogram;perimeter=parallelogramPerimeter;whiteSpace=wrap;html=1;fixedSize=1;rounded=1;arcSize=14;strokeWidth=2;" vertex="1" parent="1">
          <mxGeometry x="2125" y="60" width="245" height="120" as="geometry" />
        </mxCell>
        <mxCell id="8lcwkk5BvwK1nQJLz7jU-227" value="" style="edgeStyle=orthogonalEdgeStyle;rounded=0;orthogonalLoop=1;jettySize=auto;html=1;fontFamily=Helvetica;fontSize=10;" edge="1" parent="1" source="8lcwkk5BvwK1nQJLz7jU-224" target="8lcwkk5BvwK1nQJLz7jU-226">
          <mxGeometry relative="1" as="geometry" />
        </mxCell>
        <mxCell id="8lcwkk5BvwK1nQJLz7jU-224" value="membuat msg dan memasukkan value dari variable diatas pada msg" style="whiteSpace=wrap;html=1;rounded=1;arcSize=14;strokeWidth=2;" vertex="1" parent="1">
          <mxGeometry x="2186.25" y="230" width="122.5" height="70" as="geometry" />
        </mxCell>
        <mxCell id="8lcwkk5BvwK1nQJLz7jU-226" value="publish msg" style="whiteSpace=wrap;html=1;rounded=1;arcSize=14;strokeWidth=2;" vertex="1" parent="1">
          <mxGeometry x="2186.25" y="350" width="120" height="60" as="geometry" />
        </mxCell>
      </root>
    </mxGraphModel>
  </diagram>
</mxfile>
